<svg xmlns="http://www.w3.org/2000/svg" viewBox="0 0 305.175 146.785">
  <defs>
    <style>
      .cls-1 {
        fill: #525457;
      }
    </style>
  </defs>
  <g id="Logo_tumma" data-name="Logo tumma" transform="translate(-392.474 -282.739)">
    <g id="Group_1" data-name="Group 1" transform="translate(566.384 282.739)">
      <path id="Path_1" data-name="Path 1" class="cls-1" d="M654.945,285.648c-1.668,2.162,1.056,29.512,2.568,36.822s15.721,24.095,18.59,24.095,17.043-16.612,18.59-24.095,3.97-34.846,2.446-36.822S656.614,283.486,654.945,285.648Z" transform="translate(-610.231 -226.08)"/>
      <path id="Union_1" data-name="Union 1" class="cls-1" d="M12.152,59.943C8.995,56.043.445,38.215.021,32.968S5.853,0,7.3,0,3.56,26.914,4.873,32.968A41.047,41.047,0,0,0,6.84,39c.551-1.43,4.653-12.03,5.051-12.03.426,0,.122,5.225,0,6.094-.108.773-2.043,9.8-2.472,11.8a56.27,56.27,0,0,0,5.159,9.081c.793.979,3.628,1.882,7.145,2.674-.343-1.668-2.48-12.093-2.473-12.916.008-.895,2.286-14.738,2.76-14.738s-.7,14.6-.6,15.239c.085.551,3.829,10.61,4.841,13.322,6.838,1.239,14.1,2.086,14.171,2.356.129.483.339,11.4,0,11.988-.011.019-.048.029-.11.029C38.484,71.9,15.205,63.715,12.152,59.943Z" transform="translate(0 0)"/>
      <path id="Union_2" data-name="Union 2" class="cls-1" d="M28.241,59.943c3.134-3.9,11.62-21.728,12.042-26.974S34.493,0,33.058,0s3.712,26.914,2.408,32.968A41.264,41.264,0,0,1,33.514,39c-.547-1.43-4.619-12.03-5.013-12.03-.423,0-.121,5.225,0,6.094.107.773,2.028,9.8,2.454,11.8a56.378,56.378,0,0,1-5.122,9.081c-.787.979-3.6,1.882-7.093,2.674.341-1.668,2.462-12.093,2.455-12.916-.008-.895-2.269-14.738-2.74-14.738s.7,14.6.6,15.239c-.084.551-3.8,10.61-4.805,13.322C7.461,58.768.254,59.615.182,59.885c-.128.483-.336,11.4,0,11.988.011.019.048.029.109.029C2.1,71.9,25.21,63.715,28.241,59.943Z" transform="translate(90.961 0)"/>
    </g>
    <path id="Path_10" data-name="Path 10" class="cls-1" d="M21.75-199.856h4.832v17.566l18.676-17.566h6.334L29.064-178.829l24.292,25.86h-6.2l-20.57-21.876v21.876H21.75Zm38.789,0h4.7v28.276q0,4.375.229,6.6a9.577,9.577,0,0,0,1.567,4.277,9.349,9.349,0,0,0,3.755,3.265,11.449,11.449,0,0,0,5.192,1.208,11.038,11.038,0,0,0,4.865-1.012,9.938,9.938,0,0,0,3.526-2.841,10.7,10.7,0,0,0,1.992-4.016,34.507,34.507,0,0,0,.555-7.477v-28.276h4.636v28.276q0,7.118-1.437,10.905a13.537,13.537,0,0,1-5.061,6.334,14.443,14.443,0,0,1-8.522,2.547,18.592,18.592,0,0,1-7.053-1.273,14.194,14.194,0,0,1-5.224-3.559,12.765,12.765,0,0,1-2.906-5.094q-.816-2.808-.816-9.861Zm42.577,0h4.832v17.566l18.676-17.566h6.334L110.43-178.829l24.292,25.86h-6.2l-20.57-21.876v21.876h-4.832Zm57.792-1.894,21.876,48.78h-5.028l-7.379-16H150.133l-7.314,16H137.6l22.137-48.78Zm-.588,10.383-8.032,17.632h16Z" transform="translate(371.057 497.16)"/>
    <path id="Path_9" data-name="Path 9" class="cls-1" d="M21.75-194.5h9.338q8.293,0,10.84.653a12.8,12.8,0,0,1,4.669,2.286,11.173,11.173,0,0,1,3.3,4.081,12.438,12.438,0,0,1,1.175,5.453,11.767,11.767,0,0,1-2.612,7.9A11.426,11.426,0,0,1,41.9-170.24a65.333,65.333,0,0,1-12.113.816h-3.33v21.811h-4.7Zm4.7,4.571v16h7.9q7.118.131,9.469-2.318a8.068,8.068,0,0,0,2.351-5.779q0-7.9-11.428-7.9ZM63.413-194.5h26.9v4.636h-22.2v14.628H90.121v4.571H68.114v18.415H90.121v4.636H63.413Zm39.7,0h9.338a54.633,54.633,0,0,1,10.71.686,13,13,0,0,1,4.93,2.253,10.812,10.812,0,0,1,3.232,4.049,12.651,12.651,0,0,1,1.175,5.485,11.467,11.467,0,0,1-4.245,9.436q-4.245,3.428-12.016,3.167l16.913,21.811h-5.812L110.5-169.424h-2.677v21.811h-4.7Zm4.7,4.571V-174h8.1q6.008.065,8.848-1.861t2.841-6.106q0-4.179-2.808-6.073t-8.685-1.894Zm39.05-4.571h4.7v46.887h-4.7Zm23.77,0h4.7v46.887h-4.7Z" transform="translate(370.796 549.792)"/>
    <path id="Path_8" data-name="Path 8" class="cls-1" d="M-506.526-44.411v-15.7h4.972a5.124,5.124,0,0,1,3.58,1.212,4.179,4.179,0,0,1,1.336,3.255,4.355,4.355,0,0,1-.685,2.424A3.915,3.915,0,0,1-499.2-51.69a9.538,9.538,0,0,1-3.412.477h-1.661v6.8Zm4.579-13.7h-2.323v4.9h2.458a3.115,3.115,0,0,0,2.11-.645,2.317,2.317,0,0,0,.741-1.846Q-498.961-58.115-501.947-58.115Zm17.967,8.721h-7.262a3.371,3.371,0,0,0,.993,2.357,3.276,3.276,0,0,0,2.363.875,6.147,6.147,0,0,0,3.726-1.257v2a6.82,6.82,0,0,1-1.869.9,7.814,7.814,0,0,1-2.172.269,4.875,4.875,0,0,1-2.761-.707,5.144,5.144,0,0,1-1.689-1.9,5.817,5.817,0,0,1-.634-2.767,5.493,5.493,0,0,1,1.336-3.833,4.46,4.46,0,0,1,3.468-1.476A4.086,4.086,0,0,1-485.2-53.5a5.74,5.74,0,0,1,1.223,3.85Zm-7.217-1.223h5.2a2.852,2.852,0,0,0-.73-1.886,2.344,2.344,0,0,0-1.751-.662,2.518,2.518,0,0,0-1.8.662A3.28,3.28,0,0,0-491.2-50.618Zm14.375-4.119v2.368l.112-.18q1.482-2.391,2.963-2.391a3.653,3.653,0,0,1,2.413,1.167l-1.077,1.8a3.026,3.026,0,0,0-1.975-1.01,2.117,2.117,0,0,0-1.712.943,3.561,3.561,0,0,0-.724,2.234v5.4h-2.054V-54.737Zm10.727-4.344a1.2,1.2,0,0,1,.864.348,1.142,1.142,0,0,1,.359.853,1.165,1.165,0,0,1-.359.853,1.178,1.178,0,0,1-.864.359,1.132,1.132,0,0,1-.831-.365,1.171,1.171,0,0,1-.359-.847,1.159,1.159,0,0,1,.359-.836A1.132,1.132,0,0,1-466.095-59.081Zm-1.01,4.344h2.043v10.326H-467.1Zm9.8,0v1.313a4.106,4.106,0,0,1,3.109-1.515,3.423,3.423,0,0,1,1.8.5,3.257,3.257,0,0,1,1.263,1.369,6.548,6.548,0,0,1,.432,2.755v5.9h-2.043v-5.881a4.02,4.02,0,0,0-.483-2.262,1.845,1.845,0,0,0-1.616-.679,2.943,2.943,0,0,0-2.458,1.448v7.374H-459.4V-54.737Zm10.761,1.639,3.838-3.771v2.133h3.266V-52.9h-3.266v5.062q0,1.773,1.47,1.773a4.512,4.512,0,0,0,2.323-.741v1.908a5.159,5.159,0,0,1-2.57.662,3.406,3.406,0,0,1-2.335-.819,2.334,2.334,0,0,1-.483-.556,2.951,2.951,0,0,1-.32-.808,9.075,9.075,0,0,1-.129-1.9V-52.9h-1.8Zm16.8-1.661a5.385,5.385,0,0,1,3.917,1.521,5.115,5.115,0,0,1,1.56,3.822,4.858,4.858,0,0,1-1.583,3.709,5.614,5.614,0,0,1-3.984,1.476,5.386,5.386,0,0,1-3.883-1.5,4.976,4.976,0,0,1-1.56-3.743,5.012,5.012,0,0,1,1.577-3.777A5.494,5.494,0,0,1-429.749-54.76Zm-.112,1.841a3.227,3.227,0,0,0-2.413.965,3.372,3.372,0,0,0-.943,2.458,3.222,3.222,0,0,0,.965,2.419,3.412,3.412,0,0,0,2.48.937,3.357,3.357,0,0,0,2.464-.948,3.27,3.27,0,0,0,.96-2.43,3.244,3.244,0,0,0-1-2.436A3.472,3.472,0,0,0-429.861-52.919Zm-2.413-6.824a1.045,1.045,0,0,1,.758.314,1.03,1.03,0,0,1,.32.763,1.04,1.04,0,0,1-.3.758,1,1,0,0,1-.741.309,1.03,1.03,0,0,1-.763-.32,1.045,1.045,0,0,1-.314-.758,1.03,1.03,0,0,1,.309-.758A1,1,0,0,1-432.275-59.743Zm4.321,0a1.045,1.045,0,0,1,.758.314,1.03,1.03,0,0,1,.32.763,1.04,1.04,0,0,1-.3.758,1,1,0,0,1-.741.309,1.03,1.03,0,0,1-.763-.32,1.044,1.044,0,0,1-.314-.758,1.03,1.03,0,0,1,.309-.758A1,1,0,0,1-427.953-59.743Zm17.347,14.591v-2.2a9.311,9.311,0,0,0,1.768.982,4.122,4.122,0,0,0,1.521.376,1.9,1.9,0,0,0,1.1-.314.9.9,0,0,0,.46-.752,1.012,1.012,0,0,0-.3-.746,6.9,6.9,0,0,0-1.285-.859,9.11,9.11,0,0,1-2.587-1.88,2.7,2.7,0,0,1-.612-1.7,2.387,2.387,0,0,1,.926-1.942,3.662,3.662,0,0,1,2.385-.752,6.568,6.568,0,0,1,3.109.853v2.02a6.218,6.218,0,0,0-2.974-1.1,1.654,1.654,0,0,0-.96.253.777.777,0,0,0-.365.668.959.959,0,0,0,.331.685,5.69,5.69,0,0,0,1.162.786l.73.415q2.581,1.459,2.581,3.232a2.573,2.573,0,0,1-.993,2.082,3.9,3.9,0,0,1-2.553.814,6.227,6.227,0,0,1-1.639-.2A11.031,11.031,0,0,1-410.607-45.152Zm13.163-13.929a1.2,1.2,0,0,1,.864.348,1.142,1.142,0,0,1,.359.853,1.165,1.165,0,0,1-.359.853,1.178,1.178,0,0,1-.864.359,1.132,1.132,0,0,1-.831-.365,1.171,1.171,0,0,1-.359-.847,1.159,1.159,0,0,1,.359-.836A1.132,1.132,0,0,1-397.444-59.081Zm-1.01,4.344h2.043v10.326h-2.043Zm9.8,0v1.313a4.106,4.106,0,0,1,3.109-1.515,3.423,3.423,0,0,1,1.8.5,3.257,3.257,0,0,1,1.263,1.369,6.547,6.547,0,0,1,.432,2.755v5.9H-384.1v-5.881a4.019,4.019,0,0,0-.483-2.262,1.845,1.845,0,0,0-1.616-.679,2.943,2.943,0,0,0-2.458,1.448v7.374h-2.088V-54.737ZM-370.1-44.411v-1.313a4.76,4.76,0,0,1-1.487,1.1,3.892,3.892,0,0,1-1.667.393,3.473,3.473,0,0,1-1.8-.488,3.17,3.17,0,0,1-1.246-1.324,6.635,6.635,0,0,1-.421-2.778v-5.915h2.043v5.892a4.062,4.062,0,0,0,.466,2.273,1.882,1.882,0,0,0,1.633.645,2.988,2.988,0,0,0,2.48-1.425v-7.385h2.043v10.326Zm9.717-10.326v1.313a4.106,4.106,0,0,1,3.109-1.515,3.423,3.423,0,0,1,1.8.5,3.257,3.257,0,0,1,1.263,1.369,6.547,6.547,0,0,1,.432,2.755v5.9h-2.043v-5.881a4.019,4.019,0,0,0-.483-2.262,1.845,1.845,0,0,0-1.616-.679,2.943,2.943,0,0,0-2.458,1.448v7.374h-2.088V-54.737Zm19.906,1.639,3.839-3.771v2.133h3.266V-52.9h-3.266v5.062q0,1.773,1.47,1.773a4.512,4.512,0,0,0,2.323-.741v1.908a5.159,5.159,0,0,1-2.57.662,3.406,3.406,0,0,1-2.335-.819,2.334,2.334,0,0,1-.483-.556,2.952,2.952,0,0,1-.32-.808,9.074,9.074,0,0,1-.129-1.9V-52.9h-1.8Zm18.348,2.48v4.388q0,.528.359.528a2.473,2.473,0,0,0,1.156-.55v1.246a6.682,6.682,0,0,1-1.117.612,2.422,2.422,0,0,1-.881.163q-1.313,0-1.549-1.033a4.446,4.446,0,0,1-2.772,1.01,2.447,2.447,0,0,1-1.8-.713,2.418,2.418,0,0,1-.718-1.79,2.519,2.519,0,0,1,.7-1.745,4.747,4.747,0,0,1,1.992-1.218l2.615-.9v-.55A1.647,1.647,0,0,0-326-53.031a4.486,4.486,0,0,0-3.255,1.728v-2.234a4.239,4.239,0,0,1,3.423-1.4,3.952,3.952,0,0,1,2.682.875,2.748,2.748,0,0,1,.606.746,2.691,2.691,0,0,1,.342.932A13.776,13.776,0,0,1-322.126-50.618Zm-2.009,4.164v-3.064l-1.369.528a4.622,4.622,0,0,0-1.476.836,1.405,1.405,0,0,0-.432,1.049,1.4,1.4,0,0,0,.41,1.044,1.446,1.446,0,0,0,1.061.4A2.568,2.568,0,0,0-324.135-46.454Zm13.6-8.283h2.211l-4.557,10.505h-.685l-4.669-10.505H-316l2.784,6.353Zm12.994,4.119v4.388q0,.528.359.528a2.473,2.473,0,0,0,1.156-.55v1.246a6.681,6.681,0,0,1-1.117.612,2.422,2.422,0,0,1-.881.163q-1.313,0-1.549-1.033a4.446,4.446,0,0,1-2.772,1.01,2.446,2.446,0,0,1-1.8-.713,2.418,2.418,0,0,1-.718-1.79,2.519,2.519,0,0,1,.7-1.745,4.747,4.747,0,0,1,1.992-1.218l2.615-.9v-.55a1.647,1.647,0,0,0-1.863-1.863,4.486,4.486,0,0,0-3.255,1.728v-2.234a4.239,4.239,0,0,1,3.423-1.4,3.952,3.952,0,0,1,2.682.875,2.748,2.748,0,0,1,.606.746,2.691,2.691,0,0,1,.342.932A13.788,13.788,0,0,1-297.54-50.618Zm-2.009,4.164v-3.064l-1.369.528a4.621,4.621,0,0,0-1.476.836,1.405,1.405,0,0,0-.432,1.049,1.4,1.4,0,0,0,.41,1.044,1.446,1.446,0,0,0,1.061.4A2.568,2.568,0,0,0-299.55-46.454Zm8.135-13.637h2.043v15.68h-2.043Zm7.8,0h2.043v15.68h-2.043Zm14.24,9.473v4.388q0,.528.359.528a2.473,2.473,0,0,0,1.156-.55v1.246a6.682,6.682,0,0,1-1.117.612,2.422,2.422,0,0,1-.881.163q-1.313,0-1.549-1.033a4.446,4.446,0,0,1-2.772,1.01,2.447,2.447,0,0,1-1.8-.713,2.418,2.418,0,0,1-.718-1.79,2.519,2.519,0,0,1,.7-1.745A4.747,4.747,0,0,1-274-49.72l2.615-.9v-.55a1.647,1.647,0,0,0-1.863-1.863A4.486,4.486,0,0,0-276.5-51.3v-2.234a4.239,4.239,0,0,1,3.423-1.4,3.952,3.952,0,0,1,2.682.875,2.748,2.748,0,0,1,.606.746,2.692,2.692,0,0,1,.342.932A13.79,13.79,0,0,1-269.377-50.618Zm-2.009,4.164v-3.064l-1.369.528a4.621,4.621,0,0,0-1.476.836,1.405,1.405,0,0,0-.432,1.049,1.4,1.4,0,0,0,.41,1.044,1.446,1.446,0,0,0,1.061.4A2.568,2.568,0,0,0-271.386-46.454Zm7.585,1.3v-2.2a9.31,9.31,0,0,0,1.768.982,4.122,4.122,0,0,0,1.521.376,1.9,1.9,0,0,0,1.1-.314.9.9,0,0,0,.46-.752,1.012,1.012,0,0,0-.3-.746,6.905,6.905,0,0,0-1.285-.859,9.109,9.109,0,0,1-2.587-1.88,2.7,2.7,0,0,1-.612-1.7,2.387,2.387,0,0,1,.926-1.942,3.662,3.662,0,0,1,2.385-.752,6.568,6.568,0,0,1,3.109.853v2.02a6.218,6.218,0,0,0-2.974-1.1,1.654,1.654,0,0,0-.96.253.777.777,0,0,0-.365.668.959.959,0,0,0,.331.685,5.69,5.69,0,0,0,1.162.786l.73.415q2.581,1.459,2.581,3.232a2.573,2.573,0,0,1-.993,2.082,3.9,3.9,0,0,1-2.553.814,6.227,6.227,0,0,1-1.639-.2A11.032,11.032,0,0,1-263.8-45.152Zm13.163-13.929a1.2,1.2,0,0,1,.864.348,1.142,1.142,0,0,1,.359.853,1.165,1.165,0,0,1-.359.853,1.178,1.178,0,0,1-.864.359,1.132,1.132,0,0,1-.831-.365,1.171,1.171,0,0,1-.359-.847,1.159,1.159,0,0,1,.359-.836A1.132,1.132,0,0,1-250.639-59.081Zm-1.01,4.344h2.043v10.326h-2.043Zm8.808,7.823a1.35,1.35,0,0,1,.976.393,1.294,1.294,0,0,1,.4.965,1.253,1.253,0,0,1-.4.943,1.365,1.365,0,0,1-.982.382,1.332,1.332,0,0,1-.965-.382,1.262,1.262,0,0,1-.393-.943,1.312,1.312,0,0,1,.393-.965A1.312,1.312,0,0,1-242.841-46.914Z" transform="translate(899 473.756)"/>
  </g>
</svg>
