<svg xmlns="http://www.w3.org/2000/svg" viewBox="0 0 155.266 60.795"><defs><style>.a{fill:#fff;}</style></defs><g transform="translate(-836.773 -509.723)"><path class="a" d="M-186.227-83.81h22.069v8.081h-39.069l24.051-29.121h-18.944v-8h35.905Zm56.115-8.462h-26.605a11.274,11.274,0,0,0,2.973,7.28A9.064,9.064,0,0,0-147-82.323a8.776,8.776,0,0,0,5.3-1.525,21.694,21.694,0,0,0,4.688-5.641l7.242,4.04a28.81,28.81,0,0,1-3.545,4.9,18.848,18.848,0,0,1-4,3.354,16.049,16.049,0,0,1-4.612,1.925,22.452,22.452,0,0,1-5.374.61q-8.309,0-13.341-5.336-5.031-5.374-5.031-14.255,0-8.8,4.879-14.255,4.917-5.374,13.036-5.374,8.195,0,12.96,5.222,4.726,5.184,4.726,14.37Zm-8.8-7.013q-1.791-6.861-8.652-6.861a8.886,8.886,0,0,0-2.935.476A8.4,8.4,0,0,0-153-104.3a8.7,8.7,0,0,0-1.925,2.154,10.008,10.008,0,0,0-1.22,2.859Zm10.375-13.569h8.576v3.316a16.377,16.377,0,0,1,4.193-3.392,9.615,9.615,0,0,1,4.421-.953,13.851,13.851,0,0,1,7.09,2.211l-3.926,7.852a8.188,8.188,0,0,0-4.765-1.753q-7.013,0-7.013,10.6v19.249h-8.576Zm18.951,18.3a18.448,18.448,0,0,1,5.756-13.684,19.286,19.286,0,0,1,14.027-5.641,19.392,19.392,0,0,1,14.1,5.679,18.9,18.9,0,0,1,5.717,13.951,18.8,18.8,0,0,1-5.756,13.989,19.672,19.672,0,0,1-14.217,5.6,18.865,18.865,0,0,1-13.989-5.717A19.228,19.228,0,0,1-109.59-94.558Zm8.767.152q0,5.565,2.973,8.8a10.467,10.467,0,0,0,8.043,3.278,10.454,10.454,0,0,0,8.043-3.24,12.2,12.2,0,0,0,3.011-8.652,12.2,12.2,0,0,0-3.011-8.652,10.467,10.467,0,0,0-8.043-3.278,10.376,10.376,0,0,0-7.966,3.278A11.929,11.929,0,0,0-100.824-94.406Z" transform="translate(1040 645.18)"/><path class="a" d="M-23.168-178.277a11.124,11.124,0,0,1,8.195,3.469,11.273,11.273,0,0,1,3.43,8.271,11.38,11.38,0,0,1-3.469,8.347,11.317,11.317,0,0,1-8.309,3.43,11.443,11.443,0,0,1-8.347-3.43A11.4,11.4,0,0,1-35.1-166.5a11.14,11.14,0,0,1,3.469-8.347A11.579,11.579,0,0,1-23.168-178.277Zm-.076,5.87a6.28,6.28,0,0,0-4.46,1.715,5.625,5.625,0,0,0-1.791,4.231,6.241,6.241,0,0,0,1.83,4.536,5.877,5.877,0,0,0,4.345,1.868,5.72,5.72,0,0,0,4.345-1.868,6.241,6.241,0,0,0,1.83-4.536,5.582,5.582,0,0,0-1.791-4.193A5.855,5.855,0,0,0-23.244-172.407Z" transform="translate(1003.581 688)"/></g></svg>